<svg id="Layer_1" data-name="Layer 1" xmlns="http://www.w3.org/2000/svg" viewBox="0 0 100 100"><defs><style>.cls-1{fill:#f15d49;}.cls-2{fill:#fff;fill-rule:evenodd;}</style></defs><title>Artboard 3</title><g id="_Ë_Û__5__x28_ÍÓÔË__x29__9" data-name="‘Ë„Û‡_5__x28_ÍÓÔËˇ_x29__9"><path class="cls-1" d="M50,.48A49.52,49.52,0,1,0,99.5,50,49.51,49.51,0,0,0,50,.48Z"/></g><g id="_Ë_Û__2__x28_ÍÓÔË__x29__9" data-name="‘Ë„Û‡_2__x28_ÍÓÔËˇ_x29__9"><path class="cls-2" d="M60.28,50.28l14-14a1.4,1.4,0,0,0,0-2l-8-8a1.42,1.42,0,0,0-2,0l-14,14-14-14a1.42,1.42,0,0,0-2,0l-8,8a1.42,1.42,0,0,0,0,2l14,14-14,14a1.42,1.42,0,0,0,0,2l8,8a1.42,1.42,0,0,0,2,0l14-14,14,14a1.42,1.42,0,0,0,2,0l8-8a1.4,1.4,0,0,0,0-2Z"/></g></svg>